<?xml version="1.0" encoding="UTF-8" standalone="no"?>
<svg
   class="main-svg"
   width="700"
   height="500"
   style=""
   viewBox="0 0 700 500"
   version="1.1"
   id="svg101233"
   sodipodi:docname="Main1_funestus_map.svg"
   inkscape:version="1.2 (dc2aeda, 2022-05-15)"
   xmlns:inkscape="http://www.inkscape.org/namespaces/inkscape"
   xmlns:sodipodi="http://sodipodi.sourceforge.net/DTD/sodipodi-0.dtd"
   xmlns="http://www.w3.org/2000/svg"
   xmlns:svg="http://www.w3.org/2000/svg">
  <sodipodi:namedview
     id="namedview101235"
     pagecolor="#ffffff"
     bordercolor="#000000"
     borderopacity="0.25"
     inkscape:showpageshadow="2"
     inkscape:pageopacity="0.0"
     inkscape:pagecheckerboard="0"
     inkscape:deskcolor="#d1d1d1"
     showgrid="false"
     inkscape:zoom="0.80835443"
     inkscape:cx="365.55747"
     inkscape:cy="156.49076"
     inkscape:window-width="1440"
     inkscape:window-height="789"
     inkscape:window-x="0"
     inkscape:window-y="89"
     inkscape:window-maximized="0"
     inkscape:current-layer="svg101233" />
  <defs
     id="defs-d258a7">
    <g
       class="clips"
       id="g101117" />
    <g
       class="gradients"
       id="g101119" />
    <g
       class="patterns"
       id="g101121" />
  </defs>
  <g
     class="bglayer"
     id="g101124" />
  <g
     class="layer-below"
     id="g101130">
    <g
       class="imagelayer"
       id="g101126" />
    <g
       class="shapelayer"
       id="g101128" />
  </g>
  <g
     class="cartesianlayer"
     id="g101132" />
  <g
     class="polarlayer"
     id="g101134" />
  <g
     class="smithlayer"
     id="g101136" />
  <g
     class="ternarylayer"
     id="g101138" />
  <g
     class="layer backplot"
     id="g101162">
    <g
       class="choroplethlayer"
       id="g101160" />
  </g>
  <g
     id="g108171">
    <g
       class="layer land"
       id="g101146"
       transform="translate(109.48389,-84.562474)"
       style="fill:#a9a9a9;fill-opacity:0.439716">
      <path
         d="m 474.39134,305.2528 0.97244,1.58743 0.87519,2.44186 0.58347,4.45741 0.94002,1.75242 -0.35656,1.79375 -0.64829,1.08576 -1.19934,-2.16998 -0.68071,1.08422 0.68071,2.7737 -0.32415,1.61658 -1.00486,0.86618 -0.2269,3.21055 -1.39383,4.4066 -1.78281,5.28294 -2.23661,7.31369 -1.36142,5.44212 -1.65315,4.58621 -2.91732,0.9542 -3.14422,1.67438 -2.07454,-0.99736 -2.85249,-1.43258 -1.00486,-2.10149 -0.2269,-3.4699 -1.26417,-3.1343 -0.32415,-2.80518 0.61588,-2.79093 1.68556,-0.65696 v -1.31165 l 1.71798,-2.88298 0.32415,-2.44923 -0.84278,-1.7925 -0.68071,-2.43276 -0.29173,-3.48145 1.26417,-2.11051 0.48622,-2.36688 1.78281,-0.15002 2.00971,-0.74964 1.329,-0.67404 1.58832,-0.0749 2.07454,-2.13033 2.94973,-2.27347 1.06969,-1.89592 -0.48622,-1.55816 1.52349,0.4449 2.00971,-2.59211 0.0648,-2.21594 1.19934,-1.65857 z m -37.99004,-106.77829 0.97244,3.41621 1.9773,1.83303 c -2.55551,12.5372 -1.67627,14.64204 6.05576,17.3038 6.92666,2.38451 1.73201,17.51239 -2.09362,22.59356 -1.90949,2.53617 -9.37613,-6.85312 -9.0259,15.0275 0.27477,17.16664 3.06806,11.76545 18.19537,-7.98275 7.44184,-9.71507 16.29426,-6.74352 15.4256,-5.86058 l -4.24632,4.90767 -2.26903,1.83874 -1.329,1.08128 -4.70013,3.09866 -0.68071,0.4683 -3.37113,2.73745 -3.92217,4.35812 -0.84278,1.90928 -0.45381,0.5044 -0.35656,0.36031 -1.45866,0.82879 -1.06969,0.61265 -0.87519,1.47785 -1.36142,0.28841 -0.51863,2.52445 -1.1021,1.40722 -0.0324,0.0722 -0.71312,2.38294 -1.45866,1.19223 -0.32415,0.90358 -1.329,3.54547 0.2269,2.06498 2.30145,1.30539 0.0972,0.94339 -0.97244,2.21546 0.19449,1.09072 -0.22691,1.67402 v 0.0728 l 1.23176,2.29607 1.49108,3.57984 1.329,0.8051 0.58346,1.64856 -0.12965,3.67245 0.42139,3.20587 0.16207,5.81352 0.61588,1.82247 -1.06969,2.64803 -1.23175,2.31975 -0.16208,0.26235 -0.48622,0.52499 -1.81522,1.80282 -2.4311,1.0914 -0.84278,0.33905 -4.08425,1.84885 -4.05184,4.05495 -1.06968,0.53241 -0.32415,0.19026 -2.49593,2.70782 -1.49107,0.87973 -0.32415,2.72375 1.71798,2.92961 0.12966,0.38658 0.58346,1.85933 0.0324,1.16524 0.6483,-0.19438 -0.0648,2.68859 -0.0324,1.13402 -0.2269,0.74431 -0.35656,1.09881 0.84278,0.66827 -0.55105,1.65479 -1.49107,1.38314 -2.98215,1.34731 -4.31116,2.14748 -0.32414,0.27907 -1.26418,1.19789 0.16208,0.92042 0.16207,0.7617 0.90761,0.28095 -0.2269,1.56835 -0.0972,0.52397 -0.48622,1.65647 -0.38898,1.29707 -0.42139,3.38203 -0.94003,1.84463 -2.46351,2.10022 -0.71313,0.57836 -0.74553,1.03476 -0.77796,1.07889 -0.61588,1.29005 -0.38897,0.87621 c -8.2744,6.5047 -1.02755,-29.95875 -32.71083,-34.01396 -10.52292,-1.34685 -30.15246,-5.42921 -32.15097,-11.21994 l -2.94973,-3.72323 -0.19449,-2.87307 -0.32415,-2.14699 -0.0324,-0.22562 0.0972,-0.52618 0.42139,-2.77496 1.23176,-3.4359 0.19449,-1.60083 1.16693,-3.34069 0.84278,-1.51763 0.90761,-1.03496 1.16693,-1.36588 1.16693,-1.65857 0.35656,-2.72144 v -0.14691 l -0.16208,-1.90788 -1.00485,-1.20906 -0.0973,-0.10985 -0.0324,-0.14645 -0.90761,-2.08494 -0.90761,-2.19082 0.19449,-0.7659 1.13451,-1.42122 -1.1021,-3.52866 -0.55105,-1.77943 -0.19449,-0.65318 -0.2269,-0.29023 -1.58832,-1.994 0.35656,-0.72456 -0.38897,-0.86911 -0.12966,-0.25343 -0.0973,-0.28958 -0.84278,-2.42375 -2.13937,-2.74632 -0.81036,-1.0833 -1.29659,-1.22726 -2.4311,-2.41711 -2.36627,-2.95631 -2.2042,-3.71123 0.12966,-1.04462 v -0.1801 l 0.38897,-0.5763 0.38898,-0.57629 0.64829,-1.83685 0.22691,-0.75635 0.32414,-1.15255 0.42139,-1.51284 v -0.036 l -0.19449,-0.10806 -0.48622,-0.43228 1.23176,-4.03572 0.51864,-2.84843 -1.39383,-2.38129 -0.77796,-0.28876 -0.87519,-0.32488 -0.71313,-1.62496 -0.94002,-0.50574 0.0324,-1.01177 -3.72769,1.30078 -1.36141,-0.18063 -0.32415,0.18063 -1.06968,0.61403 -2.88491,-0.0722 -1.91247,-2.24016 -1.19934,-2.64028 -2.52834,-2.38995 -2.62559,0.0725 h -0.0973 -3.17664 l -2.98215,0.39852 -2.8849,0.79677 -5.64016,2.0991 -0.55105,0.32554 -1.45866,0.90403 -1.81522,0.61454 -1.42625,0.43371 -3.20905,-1.01209 -1.65315,0.0361 -2.49593,-0.68701 -2.33386,0.0362 -4.24632,0.6147 -2.49593,1.04822 -2.33386,0.86717 -1.23175,0.4696 -0.71313,-0.10836 -0.94002,0.0361 -3.69528,-1.73437 -3.27388,-2.74864 -2.658,-1.70157 -0.42139,-0.28977 -2.4311,-2.31982 -0.71313,-0.21763 -0.25932,-0.0363 -0.38897,-0.21766 -2.2042,-1.27029 -0.58346,-0.61735 -1.29659,-1.30813 -0.48622,-1.05459 -0.12966,-0.29105 -0.0972,-0.54588 -0.35657,-2.1492 -1.5559,-2.15267 -1.42625,-1.42497 -0.74553,-0.40222 -0.16208,-0.0731 -0.90761,-0.7317 -0.0648,-0.2562 -0.32414,-1.35518 -0.55105,-0.80655 -1.03727,-0.58696 -1.91247,-1.54231 -1.52349,-0.25727 -0.84278,-1.02973 0.0324,-0.55207 -1.1021,-0.77341 -0.2269,-0.81091 -0.58346,-2.84363 0.4538,-1.62891 -1.329,-2.56057 -0.16207,-0.33456 -0.32415,-0.22311 -1.45866,-1.07924 1.58832,-0.70786 0.71312,-1.11895 1.03727,-1.49443 0.84278,-1.94713 -0.32414,-2.02745 0.38897,-0.71471 0.61588,-1.12996 0.45381,-3.55256 c 14.9199,0.098 25.03898,6.39826 35.87032,3.41034 33.47251,-9.23368 29.40008,5.65786 83.60978,8.92928 18.48157,1.11532 42.30946,2.28754 53.75634,-2.82887 16.8551,-7.53372 16.56788,-9.55209 25.33609,-4.71532 z"
         style="fill:#a9a9a9;fill-opacity:0.439716;stroke:none"
         id="path101144"
         sodipodi:nodetypes="ccccccccccccccccccccccccccccccccccccccccccccccccccccssssccccccccccccccccccccccccccccccccccccccccccccccccccccccccccccccccccccccccccccccccccscccccccccccccccccccccccccccccccccccccccccccccccccccccccccccccccccccccccccccccccccccccccccccccccccccccccccccccccccccccccccccccccccccsssc" />
    </g>
    <g
       class="layer lakes"
       id="g101150"
       transform="translate(109.37296,-84.547364)">
      <path
         d="m 418.6705,263.79994 -1.75039,1.62114 -1.19934,1.62148 1.42624,1.26144 -2.04212,0.86517 -0.45381,-0.39656 -2.07454,0.18025 -1.62073,0.82923 -1.00486,-1.406 0.68071,-2.52265 0.0972,-2.16157 -0.16207,-1.36877 1.65315,-2.12501 2.26903,-0.50423 1.52349,-0.8644 1.88005,0.72034 1.03727,1.58472 z m -11.73411,27.20001 -1.23176,-0.29135 0.35656,-1.38313 -1.03727,-0.98196 -0.48622,-1.99832 -2.17178,-1.9596 -1.26418,-2.60943 0.6483,-1.52055 -0.97244,-2.02569 0.64829,-5.77873 1.329,3.46577 -0.16207,1.73451 0.68071,0.54229 -0.12966,1.51907 0.71312,1.44773 -0.84278,1.3763 2.91732,2.4654 0.25932,2.25094 2.10695,4.29322 -0.58346,0.21864 z m 16.01285,20.95375 -0.0648,0.44609 -1.29659,-1.4118 -0.61588,0.92855 -0.58346,-0.81718 0.0324,-1.37257 -0.84278,-1.11132 0.0324,-1.59048 -1.06969,-2.73075 1.03727,-2.02464 -0.2269,-4.44041 -1.26417,-2.34152 0.32414,-1.13254 1.91247,1.93691 0.29173,3.84681 1.19935,1.43226 -0.90762,3.53416 0.6483,4.69565 0.68071,0.18538 z m 6.80708,-94.92226 -0.48622,-0.69944 0.84278,-0.73679 0.97244,0.29478 -0.12965,1.21505 -0.51864,0.40469 z"
         style="fill:#add8e6;fill-opacity:1;stroke:none"
         id="path101148" />
    </g>
    <g
       class="layer countries"
       id="g101154"
       transform="translate(109.37296,-84.547364)">
      <path
         d="m 418.08704,263.4037 0.58346,0.39624 13.06312,7.35253 0.25931,2.09261 5.15394,3.61126 -1.65315,4.44905 0.2269,2.06498 2.30145,1.30539 0.0972,0.94339 -0.97244,2.21546 0.19449,1.09072 -0.22691,1.74685 1.23176,2.29607 1.49108,3.57984 1.329,0.8051 -2.85249,2.12526 -3.95459,1.43138 -2.13937,-0.0734 -1.29659,1.1023 -2.49593,0.11029 -0.94003,0.4413 -4.34356,-1.0294 -2.69042,0.29401 -1.00486,-4.98727 -1.23175,-1.68193 -0.74554,-1.02265 -3.50079,-0.69347 -2.04212,-1.09419 -2.30144,-0.58319 -1.42625,-0.61938 -1.52349,-0.94674 -1.94488,-4.5795 -2.07454,-2.03119 -0.71312,-2.10135 0.35656,-1.88208 -0.6483,-3.32597 1.49108,-0.14451 1.29659,-1.33631 1.39383,-1.87704 0.90761,-0.75772 -0.0324,-1.15432 -0.77795,-0.82946 -0.2269,-1.40609 1.03727,-0.46861 0.2269,-2.12625 -1.42624,-2.01754 1.26417,-0.43227 3.92217,0.036 z M 264.7656,156.28687 v 0.28454 l -0.0648,0.77143 v 6.12481 l -11.83136,-0.24024 0.12966,10.14644 -3.37113,0.35301 -0.8752,2.03501 0.68071,5.59572 -14.1328,-0.0387 -0.77795,1.31316 0.16207,-1.66126 0.0648,0.0387 8.10367,-0.30959 0.45381,-1.39526 1.45866,-1.74904 1.19934,-5.39956 4.99186,-4.26553 1.68557,-5.02371 1.13451,-0.32076 1.16693,-3.13906 3.04698,-0.40399 1.29659,0.52512 h 1.62073 l 1.16693,-0.92948 2.23661,-0.12138 -0.0972,-2.1904 z m 136.88719,119.9191 0.6483,3.32597 -0.35656,1.88208 0.71312,2.10135 2.07454,2.03119 1.94488,4.5795 -1.42625,-0.36396 -4.82978,0.61879 -0.97244,0.43696 -1.00486,2.3328 0.81037,1.60623 -0.6483,4.3182 -0.4538,3.70949 0.97244,0.6625 2.52834,1.40007 0.97244,-0.66344 0.32415,3.98763 -2.75525,-0.037 -1.49107,-2.03278 -1.329,-1.54933 -2.75525,-0.51589 -0.81037,-1.95059 -2.2042,1.17726 -2.8849,-0.51522 -1.19935,-1.69104 -2.30144,-0.33053 -1.68556,0.11017 -0.19449,-1.13784 -1.23176,-0.11005 -1.65315,-0.22006 -2.23661,0.55024 -1.55591,-0.0734 -0.90761,0.33026 0.19449,-4.35889 -1.19934,-1.35198 -0.25932,-2.26222 0.55105,-2.1856 -0.74554,-1.41883 -0.0648,-2.25284 h -4.37598 l 0.32415,-1.30665 -1.84764,0.0363 -0.19449,0.61692 -2.23661,0.14518 -0.90761,2.10672 -0.51864,0.90895 -2.00971,-0.50908 -1.16692,0.50908 -2.39869,0.29098 -1.36142,-1.89037 -0.84278,-1.16216 -1.03727,-2.17687 -0.87519,-2.7174 -10.63202,-0.0362 -1.26417,0.43452 -1.03727,-0.0724 -1.49108,0.47082 -0.51863,-1.12254 0.94002,-0.36197 0.0972,-1.59196 0.58346,-0.90402 1.329,-0.7591 0.94003,0.36145 1.23176,-1.40936 1.97729,0.0361 0.22691,1.04792 1.329,0.61451 2.10695,-2.24042 2.10696,-1.76933 0.90761,-1.15493 -0.0972,-2.95776 1.55591,-3.49627 1.65315,-1.87349 2.36627,-1.72904 0.42139,-1.15258 0.0648,-1.33262 0.61588,-1.22456 -0.19449,-2.05304 0.4538,-3.20631 0.68071,-2.23446 1.1021,-1.94695 0.19449,-2.16437 0.32415,-2.52688 1.39383,-1.80628 1.94488,-1.19284 2.94973,1.22898 2.30145,1.33675 2.62559,0.36117 2.69041,0.72219 1.06969,-2.20329 0.51863,-0.25296 1.62074,0.36136 4.01942,-1.80731 1.42624,0.75924 1.16693,-0.10845 0.51864,-0.86776 1.36141,-0.32549 2.69042,0.36166 2.33386,0.10848 1.16693,-0.3978 2.2042,2.99999 1.58832,0.43344 0.97244,-0.61406 1.68556,0.25286 1.9773,-0.7948 0.87519,1.55326 3.17664,2.41854 -0.2269,4.21946 1.42624,0.46858 -1.13451,1.2974 -1.39383,0.93685 -1.36142,1.87335 -0.77795,1.69295 -0.19449,2.88135 -0.84278,1.36865 -0.0324,2.73765 -1.03727,0.97276 -0.12966,2.1622 -0.48622,0.28836 -0.32415,1.94683 0.90761,1.65913 z m 44.08397,-10.13635 -2.13937,-2.99011 -0.0324,-13.11401 3.14422,-4.07687 0.97244,-1.15545 2.33386,-0.0722 3.20905,-2.52932 4.66771,-0.18077 10.17821,-10.87619 2.52835,-3.02196 1.62073,-2.26178 v -1.90011 -3.69942 -1.5053 l 0.0324,-0.0367 1.16693,-0.0735 1.65315,-0.55131 1.91246,-0.36771 1.68557,-1.28803 h 1.36141 l 0.0972,1.03056 -0.32415,2.13142 v 1.94395 l -0.74554,1.31848 -1.03727,3.94667 -1.71798,4.04377 -2.23661,4.64939 -3.07939,5.32441 -3.0794,4.04794 -4.24632,4.90767 -3.59803,2.92002 -5.38084,3.56696 -3.37113,2.73745 -3.92217,4.35812 -0.84278,1.90928 z m -8.58989,10.78672 -5.15394,-3.61126 -0.25931,-2.09261 -13.06312,-7.35253 -0.58346,-0.39624 -0.0324,-3.78187 1.00486,-1.4767 1.7828,-2.37734 1.29659,-2.63016 -1.5559,-4.14583 -0.42139,-1.80382 -1.71798,-2.49091 2.2042,-2.16781 2.46351,-2.38682 1.84764,0.61503 v 2.02479 l 1.23176,1.1924 h 2.52834 l 4.53806,3.06897 1.13451,0.0361 0.84278,-0.10827 0.81037,0.39695 2.39869,0.28866 1.06968,-1.47964 3.27388,-1.51647 1.45866,1.22768 h 2.46352 l -3.14422,4.07687 0.0324,13.11401 2.13937,2.99011 -2.52835,1.44144 -0.87519,1.47785 -1.36142,0.28841 -0.51863,2.52445 -1.13452,1.4794 -0.71312,2.38294 z m -52.70627,-46.58205 -2.72283,-1.6021 -1.26418,-1.05694 -0.2269,-1.13078 0.58346,-1.53361 v -1.46237 l -2.07454,-2.30695 -0.42139,-1.57732 0.0648,-0.88138 -1.329,-1.06599 -0.0648,-2.13535 -0.74554,-1.43848 -1.26417,0.22145 0.35656,-1.36641 0.94003,-1.55353 -0.38898,-1.51915 1.16693,-1.1504 -0.74554,-0.85452 0.94003,-2.30792 1.65315,-2.72597 3.11181,0.26181 -0.19449,-15.00357 0.0648,-1.60761 4.14908,-0.0383 v -7.67776 h 14.45695 13.97072 14.29488 l 1.16693,3.79381 -0.81037,0.69408 0.51863,3.95598 1.32901,4.53881 1.39383,0.94943 1.94488,1.40264 -1.81522,2.15509 -2.65801,0.60372 -1.13451,1.16822 -0.35656,2.48082 -1.52349,5.49603 0.35656,1.48891 -0.55105,3.19221 -1.49108,3.66051 -2.17178,1.80648 -1.52349,2.83214 -0.35656,1.50488 -1.71798,1.02652 -1.06968,3.80479 0.0648,3.28315 -0.0648,-2.84491 -0.48623,-0.073 0.0648,-1.82714 -0.42139,-1.24405 -1.88005,-1.42866 -0.42139,-2.64241 0.42139,-2.72283 -1.65315,-0.25795 -0.25931,0.81047 -2.17179,0.18411 0.8752,1.06714 0.32415,2.24108 -1.9773,1.98 -1.81522,2.67118 -1.84764,0.36545 -3.01456,-2.12115 -1.36142,0.73186 -0.38898,1.06039 -1.84763,0.69424 -0.12966,0.76686 h -3.56562 l -0.51863,-0.76686 -2.59318,-0.10959 -1.29658,0.62089 -0.97244,-0.32867 -1.88006,-2.12018 -0.61588,-1.0249 -2.59317,0.51256 -0.97244,1.7191 -0.94003,3.24875 -1.23175,0.6925 -1.1021,0.40076 z m -2.62559,-42.18948 0.19449,15.00357 -3.11181,-0.26181 -1.65315,2.72597 -0.94003,2.30792 0.74554,0.85452 -1.16693,1.1504 0.38898,1.51915 -0.94003,1.55353 -0.35656,1.36641 1.26417,-0.22145 0.74554,1.43848 0.0648,2.13535 1.329,1.06599 -0.0648,0.88138 -2.26902,0.62387 -1.81523,1.50315 -2.62559,3.98666 -3.37112,1.67856 -3.50079,-0.21881 -1.00485,0.32821 0.35656,1.27563 -1.88005,1.27444 -1.52349,1.41876 -4.53806,1.41742 -0.90761,-0.83575 -0.58346,-0.0727 -0.68071,0.94478 -2.94974,0.25427 0.55105,-0.98097 -1.13451,-2.50982 -0.51864,-1.49343 -1.5559,-0.6197 -2.13937,-2.11652 0.77795,-1.75431 1.65315,0.40225 1.00486,-0.29253 2.00971,0.0366 -1.94488,-3.3327 0.12965,-2.42347 -0.2269,-2.42917 -1.45866,-2.36136 0.38898,-1.73794 -2.33386,-0.11104 0.0324,-2.37232 -1.52349,-1.3745 1.55591,-4.92259 4.60288,-3.52479 0.19449,-4.90348 1.39383,-7.7304 0.77796,-1.64991 -1.49108,-1.30783 -0.0648,-1.23359 -1.36142,-1.00425 -0.87519,-6.06378 3.63044,-2.11501 14.35971,7.4438 z m -26.96902,179.38527 1.71798,-2.04581 1.42625,1.14447 0.61588,1.76348 1.62073,0.28776 2.23661,0.78206 1.94489,-0.32946 3.20905,-2.09437 v -14.86874 l 0.97244,0.59534 2.13937,3.78751 -0.32415,2.44801 0.81037,1.41044 2.56076,-0.40343 1.81522,-1.81105 1.71798,-1.20347 0.87519,-1.91919 1.7504,-0.91689 1.52349,0.47816 1.71798,1.11756 2.91732,0.19984 2.30144,-0.91857 0.38898,-1.23529 0.61587,-1.90654 1.9773,-0.31704 1.06968,-1.50318 1.19935,-2.60019 3.24147,-2.93895 5.0891,-2.88394 1.45866,0.0777 1.75039,0.62235 1.19935,-0.46683 1.91246,0.389 1.7504,5.5151 0.90761,2.79945 -0.61588,4.44832 0.29173,1.43854 -1.81522,-0.75977 -1.03727,0.27978 -0.32415,1.2009 -1.00485,1.48536 0.0324,1.40946 2.17178,2.18315 2.10696,-0.44557 0.71312,-1.77791 h 2.72284 l -0.8752,2.95354 -0.42139,3.38203 -0.94003,1.84463 -2.46351,2.10022 -0.71313,0.57836 -1.52349,2.11365 -1.00485,2.16626 -2.04213,2.97655 -4.05183,4.35808 -2.56076,2.56136 -2.72283,1.97542 -3.76011,1.68297 -1.81522,0.21631 -0.48622,1.21369 -2.17178,-0.65069 -1.78281,0.8244 -3.92218,-0.8244 -2.17178,0.52046 -1.49108,-0.21694 -3.72768,1.69557 -3.04698,0.69789 -2.23662,1.66286 -1.65315,0.0877 -1.52349,-1.57591 -1.19934,-0.0437 -1.5559,-1.96014 -0.16208,0.6087 -0.48622,-1.17302 0.0324,-2.55045 -1.19935,-2.87547 1.16693,-0.76883 -0.0972,-3.27175 -2.33386,-3.91569 -1.81522,-3.54591 z m 45.4778,1.56133 -1.5559,-1.27414 -1.68557,0.82159 -1.94488,1.60667 -1.91246,2.64994 2.69042,3.21086 1.29658,-0.41842 0.6483,-1.33608 2.00971,-0.66641 0.61588,-1.32959 1.10209,-2.02774 z m 0,0 1.26417,1.23668 -1.10209,2.02774 -0.61588,1.32959 -2.00971,0.66641 -0.6483,1.33608 -1.29658,0.41842 -2.69042,-3.21086 1.91246,-2.64994 1.94488,-1.60667 1.68557,-0.82159 z m 7.97401,-26.82055 -1.91246,-0.389 -1.19935,0.46683 -1.75039,-0.62235 -1.45866,-0.0777 -2.30144,-1.74633 -2.78766,-0.5809 -1.06969,-2.47183 v -1.34732 l -1.52349,-0.4228 -4.08425,-4.17363 -1.13451,-2.20942 -0.71313,-0.68413 -1.39383,-3.03197 4.01942,0.41608 1.16693,0.41633 1.23176,-0.0757 1.9773,-2.4562 3.14422,-3.08629 1.29659,-0.30039 0.42139,-1.2753 2.04212,-1.49757 2.72284,-0.52345 0.25931,1.38419 2.98215,-0.0749 1.68557,0.82416 0.77795,0.90011 1.71798,0.30029 1.84763,1.20237 0.0324,4.75441 -0.71312,2.65587 -0.16208,2.8196 0.58347,1.14671 -0.42139,2.26152 -0.51864,0.34573 -0.97244,2.7732 z m -6.32086,-0.62226 -5.0891,2.88394 -3.24147,2.93895 -1.19935,2.60019 -1.06968,1.50318 -1.9773,0.31704 -0.61587,1.90654 -0.38898,1.23529 -2.30144,0.91857 -2.91732,-0.19984 -1.71798,-1.11756 -1.52349,-0.47816 -1.7504,0.91689 -0.87519,1.91919 -1.71798,1.20347 -1.81522,1.81105 -2.56076,0.40343 -0.81037,-1.41044 0.32415,-2.44801 -2.13937,-3.78751 -0.97244,-0.59534 v -11.45293 l 3.56561,-0.1164 0.0972,-13.65067 2.69042,-0.15169 5.54291,-1.32576 1.39383,1.5533 2.30144,-1.47761 h 1.06968 l 2.04213,-0.83209 0.64829,0.26465 1.39383,3.03197 0.71313,0.68413 1.13451,2.20942 4.08425,4.17363 1.52349,0.4228 v 1.34732 l 1.06969,2.47183 2.78766,0.5809 z m -34.35956,10.52087 v 14.86874 l -3.20905,2.09437 -1.94489,0.32946 -2.23661,-0.78206 -1.62073,-0.28776 -0.61588,-1.76348 -1.42625,-1.14447 -1.71798,2.04581 -2.69041,-3.10587 -1.39384,-2.96286 -0.81036,-3.9073 -0.8752,-2.87928 -1.19934,-6.10179 -0.0973,-4.70434 -0.4538,-2.1423 -1.39383,-1.59154 -1.88005,-3.16963 -1.88006,-4.6076 -0.77795,-2.40506 -2.94973,-3.72323 -0.19449,-2.87307 1.71798,-0.75408 2.17178,-0.64032 2.33386,0.11295 2.13937,1.73429 0.55105,-0.26419 14.5866,-0.18865 2.49593,1.81315 8.71955,0.52975 6.6126,-1.51247 2.94973,-0.86815 2.33386,0.22637 1.42625,0.83066 0.0324,0.3401 -2.04213,0.83209 h -1.06968 l -2.30144,1.47761 -1.39383,-1.5533 -5.54291,1.32576 -2.69042,0.15169 -0.0972,13.65067 -3.56561,0.1164 z M 235.78687,210.5697 l -1.49107,-2.89513 -1.78281,-1.30235 1.58832,-0.70786 1.75039,-2.61338 0.84278,-1.94713 1.23176,-1.20077 1.78281,0.33791 1.75039,-0.82629 2.00971,-0.0376 1.75039,1.08906 2.36628,1.01251 2.20419,2.73072 2.36628,2.57235 0.16207,2.30449 0.71312,2.11316 1.329,1.07318 0.32415,1.40432 -0.16207,1.14406 -0.51864,0.22127 -1.97729,-0.29504 -0.25932,0.40566 -0.81037,0.0737 -2.56076,-0.88523 -1.75039,-0.0369 -6.64501,-0.14763 -0.97244,0.40591 -1.19934,-0.11068 -1.91247,0.59017 -0.58346,-2.84363 3.27388,0.11096 0.8752,-0.51791 0.64829,-0.037 1.329,-0.85153 1.52349,0.77752 1.58832,0.074 1.55591,-0.85153 -0.74554,-1.07484 -1.16693,0.63024 h -1.13451 l -1.42625,-0.92698 -1.13451,0.0742 -0.81037,0.85278 z m 18.73569,4.25127 0.16207,-1.14406 -0.32415,-1.40432 -1.329,-1.07318 -0.71312,-2.11316 -0.16207,-2.30449 1.19934,-0.67025 0.61588,-2.20088 1.13451,-0.0747 2.52835,1.00804 2.00971,-0.70922 1.39383,0.22403 0.55105,-0.82178 14.45695,-0.0747 0.77795,-2.62088 -0.61588,-0.45022 -1.71798,-16.37191 -1.75039,-16.8829 5.51049,-0.0795 12.15551,8.58782 12.1555,8.48999 0.84279,1.76735 2.23661,1.11152 1.68556,0.61238 0.0324,2.44347 3.987,-0.38116 v 8.71109 l -1.94488,2.51704 -0.32414,2.32158 -3.17664,0.59797 -4.92703,0.29882 -1.32901,1.34325 -2.30144,0.14911 h -2.33386 l -0.87519,-0.70852 -1.9773,0.52213 -3.37112,1.56435 -0.71313,1.15273 -2.78766,1.67051 -0.48622,0.96371 -1.49108,0.7406 -1.75039,-0.51835 -1.00485,0.92542 -0.51864,2.5124 -2.85249,3.05766 0.0972,1.24985 -1.00485,1.54188 0.25932,2.16229 -1.49108,0.51248 -0.84278,0.47568 -0.55105,-1.57413 -1.03727,0.40289 -0.64829,-0.0366 -0.6483,1.06152 -2.78766,-0.0366 -1.00486,-0.54896 -0.4538,0.32941 -1.1021,-1.06176 0.19449,-1.09941 -0.45381,-0.40339 -0.77795,0.36672 0.16207,-1.21066 0.71313,-0.95483 -1.45866,-1.54426 -0.42139,-0.99399 -0.81037,-0.81065 -0.71312,-0.1106 -0.8752,0.51601 -1.16693,0.51573 -0.97244,0.7731 -1.5559,-0.29444 -1.00486,-0.9207 -0.58346,-0.14739 -0.94003,0.51577 h -0.58346 z m -19.99986,-32.18889 0.77795,-1.31316 14.1328,0.0387 -0.68071,-5.59572 0.8752,-2.03501 3.37113,-0.35301 -0.12966,-10.14644 11.83136,0.24024 v -6.12481 l 13.54933,9.71402 -5.51049,0.0795 1.75039,16.8829 1.71798,16.37191 0.61588,0.45022 -0.77795,2.62088 -14.45695,0.0747 -0.55105,0.82178 -1.39383,-0.22403 -2.00971,0.70922 -2.52835,-1.00804 -1.13451,0.0747 -0.61588,2.20088 -1.19934,0.67025 -2.36628,-2.57235 -2.20419,-2.73072 -2.36628,-1.01251 -1.75039,-1.08906 -2.00971,0.0376 -1.75039,0.82629 -1.78281,-0.33791 -1.23176,1.20077 -0.32414,-2.02745 1.00485,-1.84467 0.45381,-3.55256 -0.38898,-3.76222 -0.4538,-1.9086 0.38897,-1.91454 -0.94002,-1.80525 z m 71.15022,54.79482 -2.98215,0.39852 -0.87519,-2.50118 0.16207,-8.32897 -0.71312,-0.76627 -0.16208,-1.78977 -1.23175,-1.28002 -1.1021,-1.06165 0.4538,-1.94285 1.23176,-0.40367 0.74554,-1.61619 1.75039,-0.3309 0.77795,-1.10376 1.23176,-1.10498 h 1.26417 l 2.75525,2.13519 -0.12966,1.21286 0.81037,2.16497 -0.71312,1.46536 0.38897,0.98806 -1.75039,2.26579 -1.1021,1.13135 -0.68071,2.2962 0.0648,2.32878 z m 43.79224,-62.05577 0.87519,6.06378 1.36142,1.00425 0.0648,1.23359 1.49108,1.30783 -0.77796,1.64991 -1.39383,7.7304 -0.19449,4.90348 -4.60288,3.52479 -1.55591,4.92259 1.52349,1.3745 -0.0324,2.37232 2.33386,0.11104 -0.38898,1.73794 -1.00485,0.1847 -0.0973,1.18118 -0.68071,0.0738 -2.4311,-4.02929 -0.84278,-0.14821 -2.82008,2.07265 -2.78766,-1.07274 -1.94488,-0.2221 -1.03727,0.51816 -2.10695,-0.11101 -2.13937,1.58984 -1.81523,0.0739 -4.37598,-1.92279 -1.71798,0.92492 -1.81522,-0.074 -1.36141,-1.40638 -3.59803,-1.37152 -3.88977,0.44505 -0.94002,0.81535 -0.48622,2.10901 -1.03727,1.47711 -0.25932,3.31523 -2.75525,-2.13519 h -1.26417 l -1.23176,1.10498 0.0972,-2.54335 -4.14908,-0.84929 -0.12966,-1.77495 -2.00971,-2.40923 -0.48622,-1.7091 0.29173,-1.78718 2.30144,-0.14911 1.32901,-1.34325 4.92703,-0.29882 3.17664,-0.59797 0.32414,-2.32158 1.94488,-2.51704 v -8.71109 l 5.08911,-1.67988 10.40511,-7.57946 12.34999,-7.4083 5.70499,1.68562 2.00971,2.14822 z m -43.79224,62.05577 0.19449,-5.84313 -0.0648,-2.32878 0.68071,-2.2962 1.1021,-1.13135 1.75039,-2.26579 -0.38897,-0.98806 0.71312,-1.46536 -0.81037,-2.16497 0.12966,-1.21286 0.25932,-3.31523 1.03727,-1.47711 0.48622,-2.10901 0.94002,-0.81535 3.88977,-0.44505 3.59803,1.37152 1.36141,1.40638 1.81522,0.074 1.71798,-0.92492 4.37598,1.92279 1.81523,-0.0739 2.13937,-1.58984 2.10695,0.11101 1.03727,-0.51816 1.94488,0.2221 2.78766,1.07274 2.82008,-2.07265 0.84278,0.14821 2.4311,4.02929 0.68071,-0.0738 1.42625,1.47442 -0.42139,0.66277 -0.16208,1.21394 -3.04698,2.8637 -0.94002,2.34413 -0.51864,1.90114 -0.77795,0.80344 -0.71312,2.55305 -1.91247,1.49312 -0.58346,1.85512 -0.81037,1.45341 -0.32415,1.48837 -2.46351,1.23328 -2.04213,-1.48729 -1.36141,0.0726 -2.13937,2.10351 -1.03727,0.0362 -1.71798,3.51262 -0.94003,2.53127 -3.72769,1.30078 -1.36141,-0.18063 -1.39383,0.79466 -2.88491,-0.0722 -1.91247,-2.24016 -1.19934,-2.64028 -2.52834,-2.38995 -2.72284,0.0725 z m 42.49565,-24.11935 1.45866,2.36136 0.2269,2.42917 -0.12965,2.42347 1.94488,3.3327 -2.00971,-0.0366 -1.00486,0.29253 -1.65315,-0.40225 -0.77795,1.75431 2.13937,2.11652 1.5559,0.6197 0.51864,1.49343 1.13451,2.50982 -0.55105,0.98097 -1.81522,3.70064 -0.8752,0.65225 -0.29173,2.78775 0.35656,1.51905 -0.25931,1.08443 1.68556,1.91469 0.32415,1.2637 1.329,1.87655 1.62073,1.1543 0.16208,1.65871 0.38897,1.0454 -0.25932,1.94607 -2.85249,-0.86484 -2.91732,-0.93705 -4.53805,-0.14418 -0.45381,-0.21627 -2.13937,0.46857 -2.17178,-0.46857 -1.71798,0.21627 -5.86706,-0.0721 0.51864,-2.84843 -1.39383,-2.38129 -1.65315,-0.61364 -0.71313,-1.62496 -0.94002,-0.50574 0.0324,-1.01177 0.94003,-2.53127 1.71798,-3.51262 1.03727,-0.0362 2.13937,-2.10351 1.36141,-0.0726 2.04213,1.48729 2.46351,-1.23328 0.32415,-1.48837 0.81037,-1.45341 0.58346,-1.85512 1.91247,-1.49312 0.71312,-2.55305 0.77795,-0.80344 0.51864,-1.90114 0.94002,-2.34413 3.04698,-2.8637 0.16208,-1.21394 0.42139,-0.66277 -1.42625,-1.47442 0.0973,-1.18118 z m -48.94617,6.84716 -0.4538,1.94285 1.1021,1.06165 1.23175,1.28002 0.16208,1.78977 0.71312,0.76627 -0.16207,8.32897 0.87519,2.50118 -2.8849,0.79677 -0.81037,-1.26775 -0.97244,-2.32041 -0.25932,-1.815 0.77795,-3.27229 -0.90761,-1.31098 -0.32414,-2.88134 v -2.6684 l -1.52349,-1.86782 0.29173,-1.13687 z m -3.14422,-0.0734 -0.29173,1.13687 1.52349,1.86782 v 2.6684 l 0.32414,2.88134 0.90761,1.31098 -0.77795,3.27229 0.25932,1.815 0.97244,2.32041 0.81037,1.26775 -5.64016,2.0991 -2.00971,1.22957 -3.24147,1.08438 -3.20905,-1.04822 0.16207,-1.41043 -1.5559,-3.11345 0.94003,-4.09884 1.49107,-3.05362 -0.94003,-5.21368 -0.48622,-2.74309 0.0648,-2.08914 6.25604,-0.14675 1.58832,0.2568 1.16693,-0.58707 z m -29.01114,2.9681 0.4538,-0.32941 1.00486,0.54896 2.78766,0.0366 0.6483,-1.06152 0.64829,0.0366 1.03727,-0.40289 0.55105,1.57413 0.84278,-0.47568 1.49108,-0.51248 1.62073,0.76864 0.61588,1.20684 1.62073,0.80389 1.26418,-0.95011 1.68556,-0.10967 2.46351,0.91366 0.94003,5.21368 -1.49107,3.05362 -0.94003,4.09884 1.5559,3.11345 -0.16207,1.41043 -1.65315,0.0361 -2.49593,-0.68701 -2.33386,0.0362 -4.24632,0.6147 -2.49593,1.04822 -3.56561,1.33677 -0.71313,-0.10836 0.29174,-2.96365 0.32414,-0.47019 -0.0972,-1.41116 -1.52349,-1.52079 -1.13452,-0.25358 -1.06968,-0.9784 0.77795,-1.63185 -0.35656,-1.74236 0.16207,-1.05359 h 0.58347 l 0.2269,-1.59993 -0.29173,-0.69141 0.35656,-0.50968 1.329,-0.43701 -0.90761,-2.91706 -0.81037,-1.49756 0.29174,-1.24328 z m -20.42125,-8.74496 1.75039,0.0369 2.56076,0.88523 0.81037,-0.0737 0.25932,-0.40566 1.97729,0.29504 0.51864,-0.22127 0.19449,1.36371 h 0.58346 l 0.94003,-0.51577 0.58346,0.14739 1.00486,0.9207 1.5559,0.29444 0.97244,-0.7731 1.16693,-0.51573 0.8752,-0.51601 0.71312,0.1106 0.81037,0.81065 0.42139,0.99399 1.45866,1.54426 -0.71313,0.95483 -0.16207,1.21066 0.77795,-0.36672 0.45381,0.40339 -0.19449,1.09941 1.1021,1.06176 -0.71312,0.29272 -0.29174,1.24328 0.81037,1.49756 0.90761,2.91706 -1.329,0.43701 -0.35656,0.50968 0.29173,0.69141 -0.2269,1.59993 h -0.58347 l -1.00485,-0.10903 -0.74554,1.48945 -1.00485,-0.0363 -0.71313,-0.76273 0.25932,-1.45386 -1.52349,-2.25629 -0.94003,0.43698 -0.77795,0.0728 -0.97244,0.21843 0.0324,-1.34752 -0.58347,-0.9477 0.12966,-1.05785 -0.77795,-1.53361 -1.00486,-1.31605 h -2.8849 l -0.84278,0.69476 -1.00486,0.0731 -0.58346,0.80391 -0.42139,0.98591 -1.94489,1.60504 -1.5559,-2.15267 -1.42625,-1.42497 -0.90761,-0.47537 -0.90761,-0.7317 -0.38897,-1.61138 -0.55105,-0.80655 -1.03727,-0.58696 1.58832,-1.79958 1.10209,0.0735 0.94003,-0.62503 h 0.81037 l 0.55105,-0.51501 -0.29174,-1.21501 0.38898,-0.36848 z m -10.72926,0.73777 1.91247,-0.59017 1.19934,0.11068 0.97244,-0.40591 6.64501,0.14763 -0.0648,1.25388 -0.38898,0.36848 0.29174,1.21501 -0.55105,0.51501 h -0.81037 l -0.94003,0.62503 -1.10209,-0.0735 -1.58832,1.79958 -1.91247,-1.54231 -1.52349,-0.25727 -0.84278,-1.02973 0.0324,-0.55207 -1.1021,-0.77341 z m 29.65943,17.19584 -0.16207,1.05359 0.35656,1.74236 -0.77795,1.63185 1.06968,0.9784 1.13452,0.25358 1.52349,1.52079 0.0972,1.41116 -0.32414,0.47019 -0.29174,2.96365 -0.94002,0.0361 -3.69528,-1.73437 -3.27388,-2.74864 -3.07939,-1.99134 -2.4311,-2.31982 0.87519,-1.16104 0.19449,-1.05289 1.62073,-1.96243 1.65315,-1.71013 0.77795,-0.0728 0.94003,-0.43698 1.52349,2.25629 -0.25932,1.45386 0.71313,0.76273 1.00485,0.0363 0.74554,-1.48945 z m -17.30944,-4.44054 1.94489,-1.60504 0.42139,-0.98591 0.58346,-0.80391 1.00486,-0.0731 0.84278,-0.69476 h 2.8849 l 1.00486,1.31605 0.77795,1.53361 -0.12966,1.05785 0.58347,0.9477 -0.0324,1.34752 0.97244,-0.21843 -1.65315,1.71013 -1.62073,1.96243 -0.19449,1.05289 -0.87519,1.16104 -0.97245,-0.25391 -2.59317,-1.48795 -1.88005,-1.92548 -0.61588,-1.34564 z m 28.26561,-5.33379 -0.25932,-2.16229 1.00485,-1.54188 -0.0972,-1.24985 2.85249,-3.05766 0.51864,-2.5124 1.00485,-0.92542 1.75039,0.51835 1.49108,-0.7406 0.48622,-0.96371 2.78766,-1.67051 0.71313,-1.15273 3.37112,-1.56435 1.9773,-0.52213 0.87519,0.70852 h 2.33386 l -0.29173,1.78718 0.48622,1.7091 2.00971,2.40923 0.12966,1.77495 4.14908,0.84929 -0.0972,2.54335 -0.77795,1.10376 -1.75039,0.3309 -0.74554,1.61619 -1.23176,0.40367 -3.14422,-0.0734 -1.68556,-0.29358 -1.16693,0.58707 -1.58832,-0.2568 -6.25604,0.14675 -0.0648,2.08914 0.48622,2.74309 -2.46351,-0.91366 -1.68556,0.10967 -1.26418,0.95011 -1.62073,-0.80389 -0.61588,-1.20684 z m 118.02185,18.65542 -1.16693,0.3978 -2.33386,-0.10848 -2.69042,-0.36166 -1.36141,0.32549 -0.51864,0.86776 -1.16693,0.10845 -1.42624,-0.75924 -4.01942,1.80731 -1.62074,-0.36136 -0.51863,0.25296 -1.06969,2.20329 -2.69041,-0.72219 -2.62559,-0.36117 -2.30145,-1.33675 -2.94973,-1.22898 -1.94488,1.19284 -1.39383,1.80628 -0.32415,2.52688 -2.30144,-0.18042 -2.46352,-0.61352 -2.13937,1.91236 -1.88005,3.35336 -0.38897,-1.0454 -0.16208,-1.65871 -1.62073,-1.1543 -1.329,-1.87655 -0.32415,-1.2637 -1.68556,-1.91469 0.25931,-1.08443 -0.35656,-1.51905 0.29173,-2.78775 0.8752,-0.65225 1.81522,-3.70064 2.94974,-0.25427 0.68071,-0.94478 0.58346,0.0727 0.90761,0.83575 4.53806,-1.41742 1.52349,-1.41876 1.88005,-1.27444 -0.35656,-1.27563 1.00485,-0.32821 3.50079,0.21881 3.37112,-1.67856 2.62559,-3.98666 1.81523,-1.50315 2.26902,-0.62387 0.42139,1.57732 2.07454,2.30695 v 1.46237 l -0.58346,1.53361 0.2269,1.13078 1.26418,1.05694 2.72283,1.6021 1.97729,1.45491 0.0324,1.19924 2.4311,1.88789 1.49107,1.55955 0.90762,2.17389 2.69041,1.41174 z m -32.12295,6.24923 -0.19449,2.16437 -1.1021,1.94695 -0.68071,2.23446 -0.4538,3.20631 0.19449,2.05304 -0.61588,1.22456 -0.0648,1.33262 -0.42139,1.15258 -2.36627,1.72904 -1.65315,1.87349 -1.55591,3.49627 0.0972,2.95776 -0.90761,1.15493 -2.10696,1.76933 -2.10695,2.24042 -1.329,-0.61451 -0.22691,-1.04792 -1.97729,-0.0361 -1.23176,1.40936 -0.94003,-0.36145 -1.36141,-1.26467 -1.06969,0.61419 -1.45866,1.5542 -2.94973,-3.82962 2.72283,-1.98504 -1.36142,-2.38056 1.23176,-0.90137 2.4311,-0.43259 0.29173,-1.6219 1.91247,1.73004 3.20905,0.18025 1.1021,-1.7301 0.45381,-2.3781 -0.38898,-2.80967 -1.71798,-2.125 1.55591,-4.1782 -0.90761,-0.72051 -2.65801,0.28821 -1.00485,-1.87356 0.25932,-1.5497 4.53805,0.14418 2.91732,0.93705 2.85249,0.86484 0.25932,-1.94607 1.88005,-3.35336 2.13937,-1.91236 2.46352,0.61352 z m -25.8345,4.47178 1.71798,-0.21627 2.17178,0.46857 2.13937,-0.46857 0.45381,0.21627 -0.25932,1.5497 1.00485,1.87356 2.65801,-0.28821 0.90761,0.72051 -1.55591,4.1782 1.71798,2.125 0.38898,2.80967 -0.45381,2.3781 -1.1021,1.7301 -3.20905,-0.18025 -1.91247,-1.73004 -0.29173,1.6219 -2.4311,0.43259 -1.23176,0.90137 1.36142,2.38056 -2.72283,1.98504 -3.72769,-3.64437 -2.36627,-2.95631 -2.2042,-3.71123 0.12966,-1.22472 0.77795,-1.15259 0.8752,-2.5932 0.74553,-2.70141 1.19935,-0.18011 5.25117,0.036 z m -5.86706,-0.0721 5.86706,0.0721 0.0324,4.35988 -5.25117,-0.036 -1.19935,0.18011 -0.68071,-0.54034 z m 75.9476,38.35797 1.52349,0.94674 1.42625,0.61938 2.30144,0.58319 2.04212,1.09419 1.68557,1.64304 0.90761,3.10962 -0.61588,0.98952 -0.71312,2.974 0.6807,3.05641 -1.13451,1.29173 -1.06968,3.44119 1.88005,0.96445 -10.92375,3.04897 0.32415,2.64928 -2.72284,0.52345 -2.04212,1.49757 -0.42139,1.2753 -1.29659,0.30039 -3.14422,3.08629 -1.9773,2.4562 -1.23176,0.0757 -1.16693,-0.41633 -4.01942,-0.41608 -0.64829,-0.26465 -0.0324,-0.3401 -1.42625,-0.83066 -2.33386,-0.22637 -2.94973,0.86815 -2.33386,-2.37542 -2.4311,-3.07999 0.16207,-11.831 7.48779,0.0369 -0.29173,-1.25545 0.51864,-1.36434 -0.61588,-1.73034 0.38897,-1.80084 -0.35656,-1.13772 1.23176,0.11005 0.19449,1.13784 1.68556,-0.11017 2.30144,0.33053 1.19935,1.69104 2.8849,0.51522 2.2042,-1.17726 0.81037,1.95059 2.75525,0.51589 1.329,1.54933 1.49107,2.03278 2.75525,0.037 -0.32415,-3.98763 -0.97244,0.66344 -2.52834,-1.40007 -0.97244,-0.6625 0.4538,-3.70949 0.6483,-4.3182 -0.81037,-1.60623 1.00486,-2.3328 0.97244,-0.43696 4.82978,-0.61879 z m 7.2933,3.2435 3.50079,0.69347 0.74554,1.02265 1.23175,1.68193 1.00486,4.98727 -1.00486,2.79734 1.00486,4.80397 1.23176,-0.0371 1.29658,1.18641 1.52349,2.67547 0.29174,4.81583 -1.55591,0.78683 -1.1021,2.59123 -2.33385,-2.29127 -0.25932,-2.658 0.74554,-1.71719 -0.22691,-1.49021 -1.39383,-0.96717 -1.00485,0.37185 -2.07454,-1.7834 -1.88005,-0.96445 1.06968,-3.44119 1.13451,-1.29173 -0.6807,-3.05641 0.71312,-2.974 0.61588,-0.98952 -0.90761,-3.10962 z m 6.48294,8.38532 2.69042,-0.29401 4.34356,1.0294 0.94003,-0.4413 2.49593,-0.11029 1.29659,-1.1023 2.13937,0.0734 3.95459,-1.43138 2.85249,-2.12526 0.58346,1.64856 -0.12965,3.67245 0.42139,3.20587 0.16207,5.81352 0.61588,1.82247 -1.06969,2.64803 -1.39383,2.5821 -2.30144,2.32781 -3.27388,1.43045 -4.08425,1.84885 -4.05184,4.05495 -1.39383,0.72267 -2.49593,2.70782 -1.49107,0.87973 -0.32415,2.72375 1.71798,2.92961 0.71312,2.24591 0.0324,1.16524 0.6483,-0.19438 -0.0972,3.82261 -0.58346,1.84312 0.84278,0.66827 -0.55105,1.65479 -1.49107,1.38314 -2.98215,1.34731 -4.31116,2.14748 -1.58832,1.47696 0.32415,1.68212 0.90761,0.28095 -0.32414,2.09232 h -2.72284 l -0.29173,-1.81121 -0.55105,-1.76419 -0.29173,-1.43854 0.61588,-4.44832 -0.90761,-2.79945 -1.7504,-5.5151 3.79252,-4.37982 0.97244,-2.7732 0.51864,-0.34573 0.42139,-2.26152 -0.58347,-1.14671 0.16208,-2.8196 0.71312,-2.65587 -0.0324,-4.75441 -1.84763,-1.20237 -1.71798,-0.30029 -0.77795,-0.90011 -1.68557,-0.82416 -2.98215,0.0749 -0.25931,-1.38419 -0.32415,-2.64928 10.92375,-3.04897 2.07454,1.7834 1.00485,-0.37185 1.39383,0.96717 0.22691,1.49021 -0.74554,1.71719 0.25932,2.658 2.33385,2.29127 1.1021,-2.59123 1.55591,-0.78683 -0.29174,-4.81583 -1.52349,-2.67547 -1.29658,-1.18641 -1.23176,0.0371 -1.00486,-4.80397 z m -8.97887,58.23279 -0.71312,1.77791 -2.10696,0.44557 -2.17178,-2.18315 -0.0324,-1.40946 1.00485,-1.48536 0.32415,-1.2009 1.03727,-0.27978 1.81522,0.75977 0.55105,1.76419 z m -68.68671,-82.73379 -1.329,0.7591 -0.58346,0.90402 -0.0972,1.59196 -0.94002,0.36197 -0.94003,-2.71333 1.45866,-1.5542 1.06969,-0.61419 z m -2.4311,4.73959 1.49108,-0.47082 1.03727,0.0724 1.26417,-0.43452 10.63202,0.0362 0.87519,2.7174 1.03727,2.17687 0.84278,1.16216 1.36142,1.89037 2.39869,-0.29098 1.16692,-0.50908 2.00971,0.50908 0.51864,-0.90895 0.90761,-2.10672 2.23661,-0.14518 0.19449,-0.61692 1.84764,-0.0363 -0.32415,1.30665 h 4.37598 l 0.0648,2.25284 0.74554,1.41883 -0.55105,2.1856 0.25932,2.26222 1.19934,1.35198 -0.19449,4.35889 0.90761,-0.33026 1.55591,0.0734 2.23661,-0.55024 1.65315,0.22006 0.35656,1.13772 -0.38897,1.80084 0.61588,1.73034 -0.51864,1.36434 0.29173,1.25545 -7.48779,-0.0369 -0.16207,11.831 2.4311,3.07999 2.33386,2.37542 -6.6126,1.51247 -8.71955,-0.52975 -2.49593,-1.81315 -14.5866,0.18865 -0.55105,0.26419 -2.13937,-1.73429 -2.33386,-0.11295 -2.17178,0.64032 -1.71798,0.75408 -0.35656,-2.37261 0.51863,-3.30114 1.23176,-3.4359 0.19449,-1.60083 1.16693,-3.34069 0.84278,-1.51763 2.07454,-2.40084 1.16693,-1.65857 0.35656,-2.72144 -0.16208,-2.05479 -1.1021,-1.31891 -0.94002,-2.23139 -0.90761,-2.19082 0.19449,-0.7659 1.13451,-1.42122 -1.1021,-3.52866 -0.74554,-2.43261 -1.81522,-2.28423 z m 65.348,-13.29295 0.2269,1.40609 0.77795,0.82946 0.0324,1.15432 -0.90761,0.75772 -1.39383,1.87704 -1.29659,1.33631 -1.49108,0.14451 -0.2269,-4.33205 -0.90761,-1.65913 2.17178,0.2885 1.1021,-2.05511 z m 68.68671,36.55228 0.97244,1.58743 0.87519,2.44186 0.58347,4.45741 0.94002,1.75242 -0.35656,1.79375 -0.64829,1.08576 -1.19934,-2.16998 -0.68071,1.08422 0.68071,2.7737 -0.32415,1.61658 -1.00486,0.86618 -0.2269,3.21055 -1.39383,4.4066 -1.78281,5.28294 -2.23661,7.31369 -1.36142,5.44212 -1.65315,4.58621 -2.91732,0.9542 -3.14422,1.67438 -2.07454,-0.99736 -2.85249,-1.43258 -1.00486,-2.10149 -0.2269,-3.4699 -1.26417,-3.1343 -0.32415,-2.80518 0.61588,-2.79093 1.68556,-0.65696 v -1.31165 l 1.71798,-2.88298 0.32415,-2.44923 -0.84278,-1.7925 -0.68071,-2.43276 -0.29173,-3.48145 1.26417,-2.11051 0.48622,-2.36688 1.78281,-0.15002 2.00971,-0.74964 1.329,-0.67404 1.58832,-0.0749 2.07454,-2.13033 2.94973,-2.27347 1.06969,-1.89592 -0.48622,-1.55816 1.52349,0.4449 2.00971,-2.59211 0.0648,-2.21594 1.19934,-1.65857 z m -238.60447,-94.6831 3.92218,-0.11117 0.81037,-0.85278 1.13451,-0.0742 1.42625,0.92698 h 1.13451 l 1.16693,-0.63024 0.74554,1.07484 -1.55591,0.85153 -1.58832,-0.074 -1.52349,-0.77752 -1.329,0.85153 -0.64829,0.037 -0.8752,0.51791 -3.27388,-0.11096 z m 94.32672,-65.19514 -1.52349,-7.53783 -2.20419,-1.74706 -0.0324,-1.02637 -2.94974,-2.5781 -0.32414,-3.24777 2.2042,-2.4438 0.87519,-3.60844 -0.58346,-4.22688 0.74554,-2.33555 3.92217,-1.80744 2.49593,0.54323 -0.0972,2.25425 3.04698,-1.62156 0.25932,0.85678 -1.78281,2.1998 -0.0324,2.05253 1.23176,1.11048 -0.4538,3.7938 -2.36628,2.23107 0.68071,2.34758 1.84764,0.0867 0.90761,2.03076 1.36142,0.68883 -0.19449,3.29758 -1.75039,1.23464 -1.1021,1.35782 -2.49593,1.60633 0.38897,1.76788 -0.29173,1.76012 z m -65.41282,11.96828 0.0648,-0.77143 v -0.28454 l -0.0324,-4.82462 5.83464,-3.05347 3.59803,-0.62166 2.94974,-1.12133 1.36142,-2.08464 4.21391,-1.67544 0.16207,-3.11816 2.07454,-0.38092 1.62073,-1.5699 4.73255,-0.68084 0.64829,-1.6646 -0.94003,-0.94221 -1.26417,-4.52959 -0.19449,-2.65709 -1.36141,-2.80878 3.46837,-2.4315 3.88976,-0.75494 2.26903,-1.82744 3.46837,-1.38811 6.09396,-0.80856 5.9643,-0.35997 1.81522,0.67464 3.40354,-1.75681 3.82493,-0.0452 1.49108,1.03729 2.46352,-0.27029 -0.74554,2.33555 0.58346,4.22688 -0.87519,3.60844 -2.2042,2.4438 0.32414,3.24777 2.94974,2.5781 0.0324,1.02637 2.20419,1.74706 1.52349,7.53783 1.16693,3.65496 0.19449,1.93907 -0.61588,3.32131 0.25932,1.87496 -0.45381,2.23148 0.29174,2.54261 -1.42625,1.64721 2.13937,2.91866 0.12966,1.71094 1.29658,2.21929 1.68557,-0.75186 2.82007,1.8578 1.58832,2.4796 -12.34999,7.4083 -10.40511,7.57946 -5.08911,1.67988 -3.987,0.38116 -0.0324,-2.44347 -1.68556,-0.61238 -2.23661,-1.11152 -0.84279,-1.76735 -12.1555,-8.48999 -12.15551,-8.58782 z m 162.46238,50.14581 -0.35656,-1.48891 1.52349,-5.49603 0.35656,-2.48082 1.13451,-1.16822 2.65801,-0.60372 1.81522,-2.15509 2.10695,4.37873 0.97244,3.41621 1.9773,1.83303 4.92703,3.54166 2.00971,2.11765 1.94488,2.11245 1.13451,1.29463 1.7504,1.10823 -1.06969,0.88564 -1.5559,-0.33202 -1.23176,-1.18146 -1.45866,-2.18229 -1.62074,-1.18586 -0.90761,-1.26175 -3.14422,-1.48683 -2.46352,-0.0744 -0.87519,-0.74449 -2.10696,0.85611 -2.20419,-1.67583 -1.1021,2.75399 z m -138.99415,-82.935 1.36141,2.80878 0.19449,2.65709 1.26417,4.52959 0.94003,0.94221 -0.64829,1.6646 -4.73255,0.68084 -1.62073,1.5699 -2.07454,0.38092 -0.16207,3.11816 -4.21391,1.67544 -1.36142,2.08464 -2.94974,1.12133 -3.59803,0.62166 -5.83464,3.05347 0.0324,4.82462 h -0.55105 l 0.0972,2.1904 -2.23661,0.12138 -1.16693,0.92948 h -1.62073 l -1.29659,-0.52512 -3.04698,0.40399 -1.16693,3.13906 -1.13451,0.32076 -1.68557,5.02371 -4.99186,4.26553 -1.19934,5.39956 -1.45866,1.74904 -0.45381,1.39526 -8.10367,0.30959 -0.0648,-0.0387 0.16208,-1.78259 1.39383,-1.04898 1.16693,-2.02596 -0.22691,-1.32881 1.23176,-2.78576 2.00971,-2.4846 1.23176,-0.63296 0.94003,-2.3411 0.0972,-2.11266 1.29659,-2.48336 2.39868,-1.44802 2.26903,-4.12784 0.0648,-0.0813 1.81522,-1.54788 3.33871,-0.44909 2.8525,-2.78653 1.81522,-1.11145 2.98215,-3.47668 -0.8752,-5.1865 1.36142,-3.637 0.48622,-2.2584 2.30144,-2.87417 3.63045,-1.98607 2.658,-1.77917 2.39869,-4.5522 1.13451,-2.69709 h 2.658 l 2.17179,1.90335 3.43595,-0.30916 3.72769,0.97073 z m 140.58247,54.20749 h -14.29488 -13.97072 -14.45695 v -14.49353 -14.45311 l -1.1021,-3.35667 0.94002,-2.546 -0.55105,-1.80437 1.29659,-2.02387 4.79737,-0.0846 3.46838,1.13994 3.56561,1.22074 1.65315,0.67192 2.78766,-1.34497 1.49108,-1.22281 3.17664,-0.338 2.56076,0.54909 0.97244,2.06286 0.84278,-1.34596 2.8849,0.96787 2.78767,0.2521 1.7828,-1.05148 2.00971,6.10237 0.35657,1.07728 -1.00486,1.65196 -0.77795,3.08027 -0.97244,2.12287 -0.84278,0.73247 -1.19935,-1.303 -1.65315,-1.8389 -2.56076,-5.8965 -0.35656,0.37355 1.49108,4.33374 2.2042,4.12777 2.72283,6.30153 1.329,2.16146 1.16693,2.23123 3.20905,4.39287 -0.71312,0.70875 0.12966,2.51215 4.18149,3.51259 z m -42.72255,0 v 7.67776 l -4.14908,0.0383 -0.0648,1.60761 -14.3597,-7.38489 -14.35971,-7.4438 -3.63044,2.11501 -2.56076,1.4833 -2.00971,-2.14822 -5.70499,-1.68562 -1.58832,-2.4796 -2.82007,-1.8578 -1.68557,0.75186 -1.29658,-2.21929 -0.12966,-1.71094 -2.13937,-2.91866 1.42625,-1.64721 -0.29174,-2.54261 0.45381,-2.23148 -0.25932,-1.87496 0.61588,-3.32131 -0.19449,-1.93907 -1.16693,-3.65496 1.78281,-0.96065 0.29173,-1.76012 -0.38897,-1.76788 2.49593,-1.60633 1.1021,-1.35782 1.75039,-1.23464 0.19449,-3.29758 4.24632,1.50243 1.52349,-0.38577 2.98215,0.72836 4.79737,1.87874 1.68557,3.77261 3.24147,0.84283 5.05669,1.72225 3.85734,2.09041 1.7504,-1.08567 1.71797,-1.92796 -0.84278,-3.20584 1.13452,-2.08087 2.59317,-2.0065 2.46352,-0.55686 4.89461,0.85636 1.23176,1.91985 h 1.329 l 1.13452,0.7228 3.59803,0.5094 0.87519,1.39745 -1.29659,2.02387 0.55105,1.80437 -0.94002,2.546 1.1021,3.35667 v 14.45311 z m 82.04155,52.31356 -10.17821,10.87619 -4.66771,0.18077 -3.20905,2.52932 -2.33386,0.0722 -0.97244,1.15545 h -2.46352 l -1.45866,-1.22768 -3.27388,1.51647 -1.06968,1.47964 -2.39869,-0.28866 -0.81037,-0.39695 -0.84278,0.10827 -1.13451,-0.0361 -4.53806,-3.06897 h -2.52834 l -1.23176,-1.1924 v -2.02479 l -1.84764,-0.61503 -2.13937,-3.94783 -1.65315,-0.83409 -0.61587,-1.45156 -1.84764,-1.77991 -2.2042,-0.25444 1.23176,-2.07348 1.91246,-0.0728 0.55105,-1.129 -0.0648,-3.28315 1.06968,-3.80479 1.71798,-1.02652 0.35656,-1.50488 1.52349,-2.83214 2.17178,-1.80648 1.49108,-3.66051 0.55105,-3.19221 4.21391,0.7806 1.1021,-2.75399 2.20419,1.67583 2.10696,-0.85611 0.87519,0.74449 2.46352,0.0744 3.14422,1.48683 0.90761,1.26175 1.62074,1.18586 1.45866,2.18229 1.23176,1.18146 -1.26418,1.65895 -1.19934,1.69293 0.25932,1.0291 0.0648,1.13819 2.00971,0.0367 0.8752,-0.2569 0.81036,0.66047 -0.81036,1.28309 1.329,2.01336 1.329,1.79084 1.39383,1.27758 11.76653,4.33466 z m -19.57846,-16.6226 1.5559,0.33202 1.06969,-0.88564 0.87519,1.14379 -0.12966,1.51069 -2.04212,0.88323 1.52349,0.99273 -1.29659,1.98262 -0.81036,-0.66047 -0.8752,0.2569 -2.00971,-0.0367 -0.0648,-1.13819 -0.25932,-1.0291 1.19934,-1.69293 z m 23.75996,4.19729 -0.0324,0.0367 v 1.5053 3.69942 1.90011 l -1.62073,2.26178 -2.52835,3.02196 -3.01456,0.0364 -11.76653,-4.33466 -1.39383,-1.27758 -1.329,-1.79084 -1.329,-2.01336 0.81036,-1.28309 1.29659,-1.98262 1.19934,0.69801 0.68071,1.50467 1.62073,1.53924 h 1.81523 l 3.37112,-0.91596 3.92218,-0.43992 3.17664,-1.1373 1.78281,-0.25697 1.29658,-0.66108 z m -54.16493,44.75434 -7.35814,0.28817 -3.92217,-0.036 -1.26417,0.43227 -2.17179,1.11679 -0.87519,-0.36027 0.0324,-2.73765 0.84278,-1.36865 0.19449,-2.88135 0.77795,-1.69295 1.36142,-1.87335 1.39383,-0.93685 1.13451,-1.2974 -1.42624,-0.46858 0.2269,-4.21946 1.45866,-1.0105 2.30144,0.83008 2.88491,-0.86618 2.56076,0.0361 2.2042,-1.66083 1.71798,2.49091 0.42139,1.80382 1.5559,4.14583 -1.29659,2.63016 -1.7828,2.37734 -1.00486,1.4767 z m -12.54448,0.68442 1.42624,2.01754 -0.2269,2.12625 -1.03727,0.46861 -1.91247,-0.25234 -1.1021,2.05511 -2.17178,-0.2885 0.32415,-1.94683 0.48622,-0.28836 0.12966,-2.1622 1.03727,-0.97276 0.87519,0.36027 z m 1.49107,-16.71972 -3.17664,-2.41854 -0.87519,-1.55326 -1.9773,0.7948 -1.68556,-0.25286 -0.97244,0.61406 -1.58832,-0.43344 -2.2042,-2.99999 -0.58347,-1.15766 -2.69041,-1.41174 -0.90762,-2.17389 -1.49107,-1.55955 -2.4311,-1.88789 -0.0324,-1.19924 -1.97729,-1.45491 -2.4311,-1.41995 1.1021,-0.40076 1.23175,-0.6925 0.94003,-3.24875 0.97244,-1.7191 2.59317,-0.51256 0.61588,1.0249 1.88006,2.12018 0.97244,0.32867 1.29658,-0.62089 2.59318,0.10959 0.51863,0.76686 h 3.56562 l 0.12966,-0.76686 1.84763,-0.69424 0.38898,-1.06039 1.36142,-0.73186 3.01456,2.12115 1.84764,-0.36545 1.81522,-2.67118 1.9773,-1.98 -0.32415,-2.24108 -0.8752,-1.06714 2.17179,-0.18411 0.25931,-0.81047 1.65315,0.25795 -0.42139,2.72283 0.42139,2.64241 1.88005,1.42866 0.42139,1.24405 -0.0648,1.82714 0.48623,0.073 0.0648,2.84491 -0.55105,1.129 -1.91246,0.0728 -1.23176,2.07348 2.2042,0.25444 1.84764,1.77991 0.61587,1.45156 1.65315,0.83409 2.13937,3.94783 -2.46351,2.38682 -2.2042,2.16781 -2.2042,1.66083 -2.56076,-0.0361 -2.88491,0.86618 -2.30144,-0.83008 z"
         style="fill:none;stroke:#000000;stroke-width:0.5px;stroke-miterlimit:2;stroke-opacity:1"
         id="path101152" />
    </g>
    <g
       class="layer frontplot"
       id="g101202"
       transform="translate(109.37296,-84.547364)">
      <g
         class="scatterlayer"
         id="g101200">
        <g
           class="trace scattergeo"
           style="opacity:1"
           id="g101198">
          <path
             class="point"
             d="M 6,0 A 6,6 0 1 1 0,-6 6,6 0 0 1 6,0 Z"
             transform="translate(303.90373,236.96539)"
             style="opacity:1;fill:#d1985a;fill-opacity:1;stroke:#000000;stroke-width:1px;stroke-opacity:1"
             id="path101164" />
          <path
             class="point"
             d="M 6,0 A 6,6 0 1 1 0,-6 6,6 0 0 1 6,0 Z"
             transform="translate(362.99339,244.22188)"
             style="opacity:1;fill:#ff9896;fill-opacity:1;stroke:#000000;stroke-width:1px;stroke-opacity:1"
             id="path101166" />
          <path
             class="point"
             d="M 6,0 A 6,6 0 1 1 0,-6 6,6 0 0 1 6,0 Z"
             transform="translate(337.39555,238.0522)"
             style="opacity:1;fill:#d62728;fill-opacity:1;stroke:#000000;stroke-width:1px;stroke-opacity:1"
             id="path101168" />
          <path
             class="point"
             d="M -6.93,3 H 6.93 L 0,-6 Z"
             transform="translate(402.39129,248.85225)"
             style="opacity:1;fill:#e377c2;fill-opacity:1;stroke:#000000;stroke-width:1px;stroke-opacity:1"
             id="path101170" />
          <path
             class="point"
             d="M 6,0 A 6,6 0 1 1 0,-6 6,6 0 0 1 6,0 Z"
             transform="translate(351.1272,275.59753)"
             style="opacity:1;fill:#e377c2;fill-opacity:1;stroke:#000000;stroke-width:1px;stroke-opacity:1"
             id="path101172" />
          <path
             class="point"
             d="M 6,0 A 6,6 0 1 1 0,-6 6,6 0 0 1 6,0 Z"
             transform="translate(344.56928,265.88167)"
             style="opacity:1;fill:#ff7f0e;fill-opacity:1;stroke:#000000;stroke-width:1px;stroke-opacity:1"
             id="path101174" />
          <path
             class="point"
             d="M 6,0 A 6,6 0 1 1 0,-6 6,6 0 0 1 6,0 Z"
             transform="translate(290.15768,238.59537)"
             style="opacity:1;fill:#2ca02c;fill-opacity:1;stroke:#000000;stroke-width:1px;stroke-opacity:1"
             id="path101176" />
          <path
             class="point"
             d="M -6.93,3 H 6.93 L 0,-6 Z"
             transform="translate(292.51111,225.7808)"
             style="opacity:1;fill:#2ca02c;fill-opacity:1;stroke:#000000;stroke-width:1px;stroke-opacity:1"
             id="path101178" />
          <path
             class="point"
             d="M 6,0 A 6,6 0 1 1 0,-6 6,6 0 0 1 6,0 Z"
             transform="translate(422.02542,262.88111)"
             style="opacity:1;fill:#9467bd;fill-opacity:1;stroke:#000000;stroke-width:1px;stroke-opacity:1"
             id="path101180" />
          <path
             class="point"
             d="M -6.93,3 H 6.93 L 0,-6 Z"
             transform="translate(421.30517,255.67816)"
             style="opacity:1;fill:#9467bd;fill-opacity:1;stroke:#000000;stroke-width:1px;stroke-opacity:1"
             id="path101182" />
          <path
             class="point"
             d="M 6,0 A 6,6 0 1 1 0,-6 6,6 0 0 1 6,0 Z"
             transform="translate(421.26555,318.44786)"
             style="opacity:1;fill:#1f77b4;fill-opacity:1;stroke:#000000;stroke-width:1px;stroke-opacity:1"
             id="path101184" />
          <path
             class="point"
             d="M -6.93,3 H 6.93 L 0,-6 Z"
             transform="translate(442.17093,299.31311)"
             style="opacity:1;fill:#17becf;fill-opacity:1;stroke:#000000;stroke-width:1px;stroke-opacity:1"
             id="path101186" />
          <path
             class="point"
             d="M 6,0 A 6,6 0 1 1 0,-6 6,6 0 0 1 6,0 Z"
             transform="translate(414.37669,354.07773)"
             style="opacity:1;fill:#17becf;fill-opacity:1;stroke:#000000;stroke-width:1px;stroke-opacity:1"
             id="path101188" />
          <path
             class="point"
             d="M 6,0 A 6,6 0 1 1 0,-6 6,6 0 0 1 6,0 Z"
             transform="translate(309.36686,234.90956)"
             style="opacity:1;fill:#d2691e;fill-opacity:1;stroke:#000000;stroke-width:1px;stroke-opacity:1"
             id="path101190" />
          <path
             class="point"
             d="M 6,0 A 6,6 0 1 1 0,-6 6,6 0 0 1 6,0 Z"
             transform="translate(428.07916,289.89738)"
             style="opacity:1;fill:#aec7e8;fill-opacity:1;stroke:#000000;stroke-width:1px;stroke-opacity:1"
             id="path101192" />
          <path
             class="point"
             d="M 6,0 A 6,6 0 1 1 0,-6 6,6 0 0 1 6,0 Z"
             transform="translate(417.34377,255.67816)"
             style="opacity:1;fill:#c5b0d5;fill-opacity:1;stroke:#000000;stroke-width:1px;stroke-opacity:1"
             id="path101194" />
          <path
             class="point"
             d="M 6,0 A 6,6 0 1 1 0,-6 6,6 0 0 1 6,0 Z"
             transform="translate(410.74264,311.60659)"
             style="opacity:1;fill:#7bccc4;fill-opacity:1;stroke:#000000;stroke-width:1px;stroke-opacity:1"
             id="path101196" />
        </g>
      </g>
    </g>
  </g>
  <g
     class="funnelarealayer"
     id="g101208" />
  <g
     class="pielayer"
     id="g101210" />
  <g
     class="iciclelayer"
     id="g101212" />
  <g
     class="treemaplayer"
     id="g101214" />
  <g
     class="sunburstlayer"
     id="g101216" />
  <g
     class="glimages"
     id="g101218" />
  <defs
     id="topdefs-d258a7">
    <g
       class="clips"
       id="g101220" />
  </defs>
  <g
     class="layer-above"
     id="g101227">
    <g
       class="imagelayer"
       id="g101223" />
    <g
       class="shapelayer"
       id="g101225" />
  </g>
  <g
     class="infolayer"
     id="g101231">
    <g
       class="g-gtitle"
       id="g101229" />
  </g>
  <g
     id="g103028"
     transform="matrix(0.78445957,0,0,0.71143073,823.72472,-103.60375)"
     style="stroke:none;fill:#ff7979;fill-opacity:0.43971631" />
</svg>
